<svg xmlns="http://www.w3.org/2000/svg" viewBox="0 0 512 512"><defs><style>.cls-1,.cls-10{fill:#f7bf9a;}.cls-2{fill:#755026;}.cls-3{opacity:0.38;}.cls-4{fill:#bc763c;}.cls-5{opacity:0.21;}.cls-6{fill:#3f3f44;}.cls-7{opacity:0.63;}.cls-8{fill:#f2a88f;}.cls-11,.cls-9{fill:#fed9be;}.cls-10,.cls-11{fill-rule:evenodd;}.cls-12{fill:#f79820;}.cls-13{fill:#90278e;}.cls-14{fill:#f88f1c;}.cls-15{fill:#f9ac67;}.cls-16{fill:#f79c41;}.cls-17{fill:#3e2945;}.cls-18{fill:#8e3d7c;}.cls-19{fill:#d49f77;}.cls-20{fill:#fff;}.cls-21{fill:#f2f2f2;}.cls-22{fill:#543966;}.cls-23{fill:#2a1d30;opacity:0.22;}.cls-24{fill:#84575d;}.cls-25{fill:#ca6867;}</style></defs><title>cave, man, emoticon, emoji, sticker, angry</title><g id="social_media" data-name="social media"><g id="Angry"><path class="cls-1" d="M133.65,323.08a10.66,10.66,0,0,1,11-10.28l7.67.27a10.66,10.66,0,0,1,10.28,11h0a10.66,10.66,0,0,1-11,10.28l-7.67-.27a10.67,10.67,0,0,1-10.29-11Z"/><path class="cls-2" d="M127.08,30.73c10.39,10.23,17.23,21.86,23.2,33.81A198.07,198.07,0,0,1,157.83,83Q161,92.36,163.32,102c1.44,6.48,2.72,13,3.78,19.58s1.76,13.25,2.38,19.93c.45,6.73.81,13.46.91,20.25s0,13.62-.16,20.42l-.57,20.39c-.26,6.79-.38,13.53-.44,20.23s-.07,13.37.06,20,.21,13.24.48,19.81c.42,13.16,1.09,26.21,1.38,39.29l.28,19.61v19.59A11.77,11.77,0,0,1,148.5,345l-.06-.18-6.24-18.24-6.4-18.13-6.49-18c-2.18-6-4.55-11.95-6.82-17.91s-4.95-11.81-7.54-17.67-5.49-11.63-8.4-17.39-6.11-11.42-9.33-17.06l-9.9-16.79c-3.38-5.55-6.76-11.08-9.93-16.65s-6.35-11.11-9.3-16.7S62.36,159,59.83,153.32s-5-11.36-7.3-17.11A197.15,197.15,0,0,1,42.1,100.72,148.5,148.5,0,0,1,39.67,82a92.28,92.28,0,0,1,.46-19.87l.35-2.39a51.21,51.21,0,0,1,86.59-29Z"/><g class="cls-3"><path class="cls-4" d="M114.45,253.69c3.63,8.24,7.17,16.23,10,23.93C126.85,283.68,129,289.5,131,295c-1.17-8.46-48.05-132-61.23-211.49C62.89,42.19,85,19.61,85.16,16.59,62,18.83,44.17,37.79,40,61.86a76.44,76.44,0,0,0-.61,14.2c0,2.19.25,4.65.4,7.18s.37,5.16.78,8a163,163,0,0,0,3.46,18.62,212.42,212.42,0,0,0,6.54,21.4c2.81,7.44,6,15.23,9.69,23.18,7.25,15.95,16.8,32.53,27,49.17,4.91,8.37,10,16.74,14.57,25.15S110.63,245.49,114.45,253.69Z"/></g><g class="cls-5"><ellipse class="cls-6" cx="291.7" cy="487.88" rx="82.27" ry="8.12"/></g><path class="cls-1" d="M324.15,455.16s-.77,29.18,7.91,30.76,28.59,5.51,31.91,0-2.91-18.06-21.33-21.26S324.15,455.16,324.15,455.16Z"/><path class="cls-1" d="M336.43,486.1c2.82.41,10.29-21.53,16.14-47.15H314.1C327,453.19,324.59,484.38,336.43,486.1Z"/><path class="cls-1" d="M259.13,455.85s.77,29.18-7.91,30.76-28.59,5.51-31.91,0,2.91-18.06,21.33-21.26S259.13,455.85,259.13,455.85Z"/><path class="cls-1" d="M246.28,486.8c-2.82.41-10.29-21.53-16.14-47.15h38.47C255.69,453.88,258.12,485.07,246.28,486.8Z"/><g class="cls-7"><polygon class="cls-8" points="323.61 459.26 339.86 449.65 348.44 455.5 352.18 445.33 335.67 441.4 321.05 452.73 323.61 459.26"/></g><g class="cls-7"><polygon class="cls-8" points="233.45 452.9 237.18 449.12 251.45 456.74 262.04 449.92 264.91 443.79 232.55 443.79 231.81 446.8 233.45 452.9"/></g><path class="cls-1" d="M345.17,315.81l-20-4.27-68.14,0-20,4.22c-12.23,3.61-21,19.48-21,37.91l3.34,62.73c21.37,25.43,121.37,24.46,141.14-3.46l5.73-59.27c0-18.43-8.8-34.3-21-37.91Zm0,0"/><path class="cls-9" d="M360.48,413l5.73-59.27c0-18.43-8.8-34.3-21-37.91h0l-20-4.27-68.14,0-20,4.22L334.54,333l-1.92,40.1Zm-15.31-98.22"/><path class="cls-10" d="M250.1,317.74c-3.64.6-14.77,1.79-14.77,1.79s-84-11-87.16,4.06,96.11,26.43,96.76,23.95S250.1,317.74,250.1,317.74Z"/><path class="cls-11" d="M364.91,312.21c1.34,3.68,6.09,14.55,6.09,14.55s54.53,72,42.11,82.59-75.29-75.24-73.31-77.1S364.91,312.21,364.91,312.21Z"/><ellipse class="cls-12" cx="319.85" cy="340.33" rx="6.81" ry="5.16" transform="translate(-141.48 267.48) rotate(-37.8)"/><path class="cls-13" d="M284,424.44c-5.49-2.18-14.6-4.94-11.85-7.14,2.52-2,10.78-9.18,16.82-14.44,3.82-3.34,9.82-4.11,13.89-1.68,3.16,1.89,6.92,4.16,10.32,6.3,7.81,4.89,2.24,9.72,2.24,9.72l-4,2L298,423.25S289.66,426.7,284,424.44Z"/><path class="cls-14" d="M246.5,401c-9.77,2.06-19.13,5.65-28.86,7.33,1,13.08,2.91,31.53,6.66,44.23l11.08-7.76,17.11,7.66,15.76-11.18,3.34,2.46L252,399.93C250.19,400.29,248.34,400.65,246.5,401Z"/><path class="cls-15" d="M356.37,392.4c-.54-.41-1.06-.85-1.58-1.28a2.18,2.18,0,0,1-.93-.81,45.59,45.59,0,0,1-13.94-20.89c-5.24-16-4.64-33.21-8.24-49.55a2,2,0,0,1,.6-2c-.24-1.67-.48-3.34-.73-5a52,52,0,0,0-10.45-1.39,2.08,2.08,0,0,1-.2,1.24c-1.27,2.51-2.49,5-3.72,7.57-2.18,13.36-1.85,29.12-9.29,39.85a3.51,3.51,0,0,1-1.54.81c-.09,0-.15.09-.23.13l56.39,43.18c.17-1.83.32-3.56.43-5.22A13.85,13.85,0,0,1,356.37,392.4Z"/><path class="cls-14" d="M356,451.68l-1.19.44,1,.47Z"/><path class="cls-16" d="M306.13,361.08c-3.14,1.31-5.14,3.92-6,7.85a43.46,43.46,0,0,1-3.83,5.35,71.08,71.08,0,0,1-14.74,12.24,2.13,2.13,0,0,1-.48,3.18c-8.66,6.36-18.83,8.25-29.07,10.23l19.54,43.85L284,452.94l16.88-8.61,20.26,12.41,17.56-11.9,16.12,7.28,1.19-.44c.82-5,4.84-29.73,6.52-47.42Z"/><path class="cls-13" d="M339.92,369.41a87.41,87.41,0,0,1-2.71-10.84l-5.32,2.3c-3.74,1.61-5.32,4.8-3.51,7.09l0,0c1.8,2.29,7.33,4.16,12.28,4.16H341C340.64,371.25,340.24,370.38,339.92,369.41Z"/><path class="cls-13" d="M350,386.52a125.87,125.87,0,0,0-14.23,7.1c-4.8,2.84-2.88,6.72-1.76,9.2s26.32,6.09,26.32,6.09.82-.91,2-2.28c.37-3.56.64-6.86.81-9.77A57.37,57.37,0,0,1,350,386.52Z"/><path class="cls-13" d="M360.48,421.7l-3.56-.05-6.49,0c-6.2,0-12.26.11-16.11.11-6.64,0-8.72,5.31-9.34,9.3-.37,2.39,2.95,6.07,6.72,8.15,4.23,2.33,19.18,3.27,25.71,3.57C358.31,437,359.45,429.46,360.48,421.7Z"/><path class="cls-13" d="M284.38,448.6s5.15-.81,4.12-5c-.3-1.21-.48-2.44-.59-3.19-.3-2-1.66-3.37-4.76-4.44s-11.26-3.15-11.26-3.15-8.27-2.77-12.33-.46c-.93.53-2.48,1.5-3.24,2-5.09,3.68.88,9.83.88,9.83l5.63,1.12,5.4-4,11.93,8.61Z"/><path class="cls-13" d="M239.43,430.07c3.15-.12,7.9-2.28,8.41-8.75s-8.42-8.26-8.42-8.26l-21.59-2.12c.47,5.83,1.12,12.5,2,19.15C225.45,430.12,237.06,430.16,239.43,430.07Z"/><path class="cls-13" d="M282.81,385.7c4.83.74,8.77,1.22,9.94,1,2.15-.33,1.83-5.45,1.17-10A72.33,72.33,0,0,1,282.81,385.7Z"/><path class="cls-13" d="M311.88,329.59a69.7,69.7,0,0,1-8.82,10.29,67.49,67.49,0,0,0,7.65-1C311.2,335.81,311.55,332.69,311.88,329.59Z"/><path class="cls-13" d="M330,332.38a65.25,65.25,0,0,0-13.81-4.18c-.37,3.21-.7,6.47-1.14,9.7,1.42-.36,2.89-.77,4.42-1.26C331,332.89,330,332.38,330,332.38Z"/><path class="cls-13" d="M292.75,423.61l1.79-.64h0c1.19-1.13,2.55-2.3,4-3.5l6.42-8.53,9.43-2.35,2.88-1.75-4.25-5.17s-31.4-4.08-35-3.29.79,15.14,1,16.8S292.75,423.61,292.75,423.61Z"/><path class="cls-17" d="M164.31,188.18c1.77-17.91,32-32.6,32-32.6s-18.8,10.79-23.47,4.56,3.57-16.43,30.22-25.49c0,0-13.7-7.8-11.63-16.32s42.27,1.57,42.27,1.57-17-17.17-7.72-18.59,29,8.46,29,8.46-15.75-7.16-13.51-14.43S274,105.57,274,105.57s-14.21-21.13-1.37-19.24c8.19,1.21,19.9,18.5,19.9,18.5s-12-28.76-.07-28.94,13,28.33,13,28.33,7.84-28.83,15.3-26.4-7,26.4-7,26.4,40.63-32.06,47.4-20.59S343.43,102.7,341,103.83s32-10.93,35.75-1S363,117.49,357,119.47c0,0,43.49-6.05,45.55,3.55s-23.19,9.52-28.14,9.23c0,0,35.54,11.34,34.17,18.83s-9.69,3.59-23.24.82c0,0,23.16,9,22.79,19.39s-25.08-.62-25.08-.62,22.21,6.67,25.37,16.74-27.5,19.42-27.5,19.42H198.54S162.54,206.1,164.31,188.18Z"/><ellipse class="cls-18" cx="292.78" cy="281.2" rx="60.1" ry="32.02"/><ellipse class="cls-19" cx="292.78" cy="274.26" rx="60.1" ry="32.02"/><path class="cls-1" d="M382.72,236.64c-5.78-28.38-9.21-61.66-29.64-85.88-43.43-51.54-124.21-25.52-145.61,25.53-12.05,29.59-32.14,89.51,12.19,103.75C273.89,297.33,395.87,301.25,382.72,236.64Z"/><path class="cls-9" d="M251.09,176.28c10.47-25,35.14-43.95,62.7-50.79-41.78-11.23-90.43,12.87-106.32,50.79-12.05,29.59-32.14,89.5,12.19,103.75,25,8,64.37,13.1,98.28,10-20.5-1.64-40-5.33-54.66-10C219,265.78,239,205.87,251.09,176.28Z"/><path class="cls-19" d="M195.71,183.79l.38.84a2.81,2.81,0,0,1-.16-.39C195.86,184.11,195.8,184,195.71,183.79Z"/><path class="cls-19" d="M196.11,184.68l0,0-.06-.1A.12.12,0,0,1,196.11,184.68Z"/><path class="cls-19" d="M195.93,184.24a2.81,2.81,0,0,0,.16.39l.06.1C196.25,184.9,196.15,184.7,195.93,184.24Z"/><path class="cls-19" d="M380.8,183.79l-.37.84a3.24,3.24,0,0,0,.15-.39C380.65,184.11,380.71,184,380.8,183.79Z"/><path class="cls-19" d="M380.4,184.68l0,0,.06-.1S380.41,184.66,380.4,184.68Z"/><path class="cls-19" d="M380.58,184.24a3.24,3.24,0,0,1-.15.39l-.06.1C380.26,184.9,380.36,184.7,380.58,184.24Z"/><path class="cls-17" d="M416.87,275.87c-2.49-9.26-22.42-23.32-22.42-23.32,27.76,7.2,17.8-8.91,17.8-8.91-5-9.94-28.12-17.49-28.12-17.49,30.61-3.43,12.1-15.43,12.1-15.43-17.8-9.6-43.43-7.88-43.43-7.88,14.59-5.83,16-15.43,16-15.43-1.42-6.17-13.17-6.86-13.17-6.86-1.66.08-3.23.24-4.73.46-.5.07-.95.18-1.43.27-1,.17-1.92.33-2.81.55-.54.13-1,.3-1.55.45-.76.22-1.52.43-2.23.68-.52.18-1,.39-1.48.59s-1.28.51-1.87.8-.91.47-1.36.7-1.08.58-1.58.88-.83.53-1.23.8-.91.62-1.33.94-.74.58-1.09.87-.75.64-1.1,1-.66.62-1,.93c-.14.14-.31.28-.44.43l0,0A26.5,26.5,0,0,0,324,202.15c9.46,10-.91,16.23-3.6,17.3s-13.13,13.64-33.94,13.64-31.3-12.6-33.94-13.64-13.05-7.33-3.6-17.3a26.5,26.5,0,0,0-6.51-11.29l0,0c-.14-.14-.3-.29-.44-.43q-.46-.47-1-.93c-.35-.32-.72-.64-1.1-1s-.71-.59-1.09-.87-.87-.63-1.33-.94-.8-.54-1.23-.8-1-.59-1.58-.88-.88-.48-1.36-.7-1.23-.54-1.87-.8-1-.41-1.48-.59c-.71-.25-1.47-.46-2.23-.68-.52-.15-1-.31-1.55-.45-.89-.22-1.85-.38-2.81-.55-.48-.08-.93-.19-1.43-.27-1.5-.21-3.07-.37-4.73-.46,0,0-11.74.69-13.17,6.86,0,0,1.42,9.6,16,15.43,0,0-25.63-1.72-43.43,7.88,0,0-18.51,12,12.1,15.43,0,0-23.14,7.54-28.12,17.49,0,0-10,16.11,17.8,8.91,0,0-19.93,14.06-22.42,23.32,0,0-4.27,11.65,19.22-1.37,0,0-8.9,11-12.1,21.26s3,11.45,13.61,5.38c0,0-9,11.42-9.69,19.65s1.5,25.24,21.4-2.81c0,0-5.38,22-1.11,30.92,0,0,5.7,4.8,9.26,1.37s6.41-11,6.05-15.08c0,0,4.27,20.57,17.79,26.05,0,0,10,2.75,11.74-15.43,0,0,5.7,12.68,16,16.46s15.66-2.06,15.31-15.43c0,0,4.66,20.35,22,20.35s23.86-20.35,23.86-20.35c-.35,13.37,5,19.2,15.31,15.43s16-16.46,16-16.46c1.78,18.17,11.74,15.43,11.74,15.43,13.52-5.49,17.79-26.05,17.79-26.05-.36,4.11,2.49,11.65,6.05,15.08s9.26-1.37,9.26-1.37c4.27-8.91-1.11-30.92-1.11-30.92,19.9,28,22.11,11,21.4,2.81s-9.69-19.65-9.69-19.65c10.6,6.07,16.81,4.9,13.61-5.38s-12.1-21.26-12.1-21.26C421.14,287.52,416.87,275.87,416.87,275.87Z"/><ellipse class="cls-20" cx="222.6" cy="188.15" rx="32.93" ry="32.92"/><circle class="cls-20" cx="351.91" cy="187.36" r="32.94"/><path class="cls-21" d="M351.9,209.68a32.92,32.92,0,0,1-32.47-27.63,32.94,32.94,0,1,0,64.94,0A32.92,32.92,0,0,1,351.9,209.68Z"/><path class="cls-21" d="M222.6,210.46a32.92,32.92,0,0,1-32.47-27.63,32.94,32.94,0,1,0,64.94,0A32.92,32.92,0,0,1,222.6,210.46Z"/><path class="cls-17" d="M213.44,200.43a7.68,7.68,0,1,1,7.68,7.69A7.69,7.69,0,0,1,213.44,200.43Z"/><path class="cls-17" d="M344,201.92a7.69,7.69,0,1,1,7.68,7.69A7.69,7.69,0,0,1,344,201.92Z"/><path class="cls-22" d="M378.91,156.9c-4.3-3.45-9.7-4.23-15.49-3.47a6.67,6.67,0,0,0-9.65-8.08,37.67,37.67,0,0,0-10.16,8.12,7,7,0,0,0-6-4.07c-11.74-1-19.93,15.64-21.83,25-.85,4.22,2.39,7.84,6.54,8.27a19.92,19.92,0,0,0,7.29-1.07c15.14-4.2,34.27-6.35,48-14.17C381,165.49,382.33,159.64,378.91,156.9Z"/><path class="cls-22" d="M196.55,153.64c4.3-3.45,9.7-4.23,15.49-3.47a6.67,6.67,0,0,1,9.65-8.08,37.67,37.67,0,0,1,10.16,8.12,7,7,0,0,1,6-4.07c11.74-1,19.93,15.64,21.83,25,.85,4.22-2.39,7.84-6.54,8.27a19.92,19.92,0,0,1-7.29-1.07c-15.14-4.2-34.27-6.35-48-14.17C194.47,162.23,193.14,156.38,196.55,153.64Z"/><path class="cls-17" d="M262.66,389.61a.91.91,0,0,1-.46-1q-.07-.67.7,0c.27.35-.06,1.4-.21,1.72a2.94,2.94,0,0,1-2.28,1.68c-.94.16-.54,1.59.39,1.43a4.44,4.44,0,0,0,3.6-3.76c.18-1.4-.76-3.93-2.62-3-1.46.7-1.37,3.19-.27,4.15s3.19-.07,2.58-1.6c-.35-.87-1.79-.49-1.43.39Z"/><path class="cls-17" d="M252.33,383.32a4.7,4.7,0,0,0,1.46-4.1c-.15-1.07-.87-2.95-2.26-2.63s-1.11,2-.6,2.83a5.1,5.1,0,0,0,4,2.41c.95.11.94-1.38,0-1.48a3.58,3.58,0,0,1-2-.89,3.1,3.1,0,0,1-.65-.79c-.27-.52-.31-.76-.12,0a3.32,3.32,0,0,1-.81,3.64c-.7.65.35,1.7,1,1Z"/><path class="cls-17" d="M253.47,362.4c-.22,1.37-.39,2.91.73,3.95a2.06,2.06,0,0,0,2.74.24,1.9,1.9,0,0,0,.3-2.36c-.75-1.1-2-.48-2.83.18s.32,1.65,1,1c-.64.52-.58-2.48-.56-2.66.15-.93-1.28-1.34-1.43-.39Z"/><path class="cls-17" d="M285.31,367.22c-.22,1.37-.39,2.91.73,3.95a2.06,2.06,0,0,0,2.74.24,1.9,1.9,0,0,0,.3-2.36c-.75-1.1-2-.48-2.83.18s.32,1.65,1,1c-.64.52-.58-2.48-.56-2.66.15-.93-1.28-1.34-1.43-.39Z"/><path class="cls-17" d="M351.47,366.44c-.22,1.37-.39,2.91.73,3.95a2.06,2.06,0,0,0,2.74.24,1.9,1.9,0,0,0,.3-2.36c-.75-1.1-2-.48-2.83.18s.32,1.65,1,1c-.64.52-.58-2.48-.56-2.66.15-.93-1.28-1.34-1.43-.39Z"/><path class="cls-17" d="M250.85,386.5c0,1.45.24,3,1.75,3.57a2.18,2.18,0,0,0,2.86-1.14,1.82,1.82,0,1,0-3.4-1.27.74.74,0,0,0,1.43.39v.72a1,1,0,0,1-.95-.73,3,3,0,0,1-.21-1.54.74.74,0,0,0-1.48,0Z"/><path class="cls-17" d="M264.38,367.75c0,1.45.24,3,1.75,3.57a2.18,2.18,0,0,0,2.86-1.14,1.82,1.82,0,1,0-3.4-1.27.74.74,0,0,0,1.43.39V370a1,1,0,0,1-.95-.73,3,3,0,0,1-.21-1.54.74.74,0,0,0-1.48,0Z"/><path class="cls-17" d="M262.34,360.26c0,1.45.24,3,1.75,3.57a2.18,2.18,0,0,0,2.86-1.14,1.82,1.82,0,1,0-3.4-1.27.74.74,0,0,0,1.43.39v.72a1,1,0,0,1-.95-.73,3,3,0,0,1-.21-1.54.74.74,0,0,0-1.48,0Z"/><path class="cls-17" d="M256.42,374.7c.61-1.28,1-2.71,0-3.92a2.19,2.19,0,0,0-3.07-.36c-2.17,1.72.78,4.68,2.42,2.71.61-.73-.44-1.78-1-1q.94-.61.86.51a3.75,3.75,0,0,1-.46,1.36c-.41.86.87,1.61,1.28.75Z"/><path class="cls-17" d="M275.83,382.69c.61-1.28,1-2.71,0-3.92a2.19,2.19,0,0,0-3.07-.36c-2.17,1.72.78,4.68,2.42,2.71.61-.73-.44-1.78-1-1q.94-.61.86.51a3.75,3.75,0,0,1-.46,1.36c-.41.86.87,1.61,1.28.75Z"/><path class="cls-17" d="M247.08,380c.61-1.28,1-2.71,0-3.92a2.19,2.19,0,0,0-3.07-.36c-2.17,1.72.78,4.68,2.42,2.71.61-.73-.44-1.78-1-1q.94-.61.86.51a3.75,3.75,0,0,1-.46,1.36c-.41.86.87,1.61,1.28.75Z"/><path class="cls-17" d="M273.5,369.26c0,1.45.24,3,1.75,3.57a2.18,2.18,0,0,0,2.86-1.14,1.82,1.82,0,1,0-3.4-1.27.74.74,0,0,0,1.43.39v.72a1,1,0,0,1-.95-.73,3,3,0,0,1-.21-1.54.74.74,0,0,0-1.48,0Z"/><path class="cls-17" d="M341.66,371c0,1.45.24,3,1.75,3.57a2.18,2.18,0,0,0,2.86-1.14,1.82,1.82,0,1,0-3.4-1.27.74.74,0,0,0,1.43.39v.72a1,1,0,0,1-.95-.73,3,3,0,0,1-.21-1.54.74.74,0,0,0-1.48,0Z"/><path class="cls-17" d="M245.32,395.56c.22,1.49.63,3.12,2.13,3.79a2.17,2.17,0,0,0,2.95-1,1.77,1.77,0,0,0-.84-2.44c-1.37-.61-2.57.43-3.38,1.43-.59.74.45,1.79,1,1a5.59,5.59,0,0,1,.58-.68l.71-.47q-.06,1.32-.72.46c-.83-.5-.92-1.7-1-2.57s-1.57-.54-1.43.39Z"/><path class="cls-17" d="M242.78,371.47c.78-1.47,1.31-3.23.46-4.8-.5-.9-1.91-2.14-2.94-1.26s-.35,2.33.27,3.12a5.53,5.53,0,0,0,4.92,1.73c.95-.06,1-1.54,0-1.48s-3.67,0-4-1.52c-.2-.92.69.87.71,1a4.4,4.4,0,0,1-.7,2.45c-.45.84.83,1.59,1.28.75Z"/><path class="cls-17" d="M233.12,376.14a2.57,2.57,0,0,1-1,1.08q.17-1.18.52-.15c.59.85,0,1.66-.62,2.33s.41,1.76,1,1c1.06-1.18,1.87-2.88.85-4.36a2.1,2.1,0,0,0-3.17-.55,1.82,1.82,0,0,0,.17,2.95c1.46.82,2.79-.45,3.5-1.61.5-.82-.78-1.56-1.28-.75Z"/><path class="cls-17" d="M263,376.7a2.57,2.57,0,0,1-1,1.08q.17-1.18.52-.15c.59.85,0,1.66-.62,2.33s.41,1.76,1,1c1.06-1.18,1.87-2.88.85-4.36a2.1,2.1,0,0,0-3.17-.55,1.82,1.82,0,0,0,.17,2.95c1.46.82,2.79-.45,3.5-1.61.5-.82-.78-1.56-1.28-.75Z"/><path class="cls-17" d="M240.24,389.64c1.42-1.06,2.67-2.63,2.21-4.51-.3-1.24-1.78-2.69-2.87-1.3-2.22,2.8,2,7,4.73,4.4.68-.67-.37-1.72-1-1-1.27,1.24-2.93-.41-2.67-1.85s.47.8.44,1a3.51,3.51,0,0,1-1.53,2c-.76.56,0,1.85.75,1.28Z"/><path class="cls-17" d="M348.64,363l-.06-.09-.12.9.11-.11-.72.19.14,0-.54-.71c0,.37-1.25.95-1.44,1a.9.9,0,0,1-1.15-.21.84.84,0,0,1-.44-.75l.59.18a3,3,0,0,1,.06,1.33,3.2,3.2,0,0,1-.81,1.58c-.63.71.41,1.76,1,1,1.23-1.38,1.85-3.67.69-5.32a1.65,1.65,0,0,0-3,.54,2.55,2.55,0,0,0,2.13,3.12c1.32.18,3.9-.9,3.77-2.51a.76.76,0,0,0-.54-.71.93.93,0,0,0-1,.28.75.75,0,0,0-.12.9l.06.09c.5.81,1.78.07,1.28-.75Z"/><path class="cls-17" d="M350.35,380q-.62,1-1.3-.11a2,2,0,0,1,.18-1.34c.62-1.05,1.32-.24,1.47.62.31,1.66-1,3.32-2.74,2.66-.9-.33-1.28,1.1-.39,1.43a3.49,3.49,0,0,0,4.6-2.85c.29-1.61-.68-4.69-2.88-3.94-1.68.57-2.28,3.33-1.23,4.66a2.14,2.14,0,0,0,3.73-.74c.19-.93-1.24-1.33-1.43-.39Z"/><path class="cls-4" d="M470.42,245.57a17,17,0,0,0,2.23.51,21.54,21.54,0,0,0-6.21-2.37A16.79,16.79,0,0,0,470.42,245.57Z"/><path class="cls-23" d="M252.5,228.59c2.64,1,13.13,13.64,33.94,13.64s31.3-12.6,33.94-13.64,16.76-8.26,7.49-18.17c.11,1-.68,3.27-2.11,5.13a14.88,14.88,0,0,1-5.38,3.91c-2.64,1-13.13,13.64-33.94,13.64s-31.3-12.6-33.94-13.64a16.73,16.73,0,0,1-4.48-2.89c-1.64-1.61-2.37-3.63-3.09-4.23C235.65,222.24,249.83,227.53,252.5,228.59Z"/><path class="cls-24" d="M237.56,262.7c11-6.67,29.55-18.08,56.91-18.17,34.78-.11,54,10.65,63,23.86,12.77,18.72,5.13,42.37-7.39,47a44.93,44.93,0,0,1-5.17,1.59c-17.35,4.15-24.35-7-50.41-11-38.42-1.89-54.36.81-60.75,4.48a8.29,8.29,0,0,1-5,1.22c-7.68-.8-15-14.92-13.34-25.94C217,275.36,226.46,269.46,237.56,262.7Z"/><path class="cls-25" d="M282.19,274.73a69.08,69.08,0,0,0-59.39,33.75,10.35,10.35,0,0,0,5.95,3.24,8.29,8.29,0,0,0,5-1.22c6.39-3.67,22.33-6.37,60.75-4.48,26.05,4,33.06,15.12,50.41,11,.29-.07.61-.17.91-.25A69.14,69.14,0,0,0,282.19,274.73Z"/><path class="cls-21" d="M311.58,254.57a4.56,4.56,0,0,0,3.11,5.47c3.2,1.05,6.42,2.06,9.66,3,2.83.81,6.42,2.45,9.33,1.4,2.76-1,3.41-3.14,3.77-5.8l.8-6a84,84,0,0,0-25.31-7,4.44,4.44,0,0,0-.48,1.85A37,37,0,0,1,311.58,254.57Z"/><path class="cls-21" d="M250.62,263.29c2.83,1.33,6.13-.2,8.92-.94,3.83-1,7.81-1.82,11.55-3.09,6-2.05,5.56-7.62,4.39-12.76a102.5,102.5,0,0,0-28.27,10.58C247.6,259.55,248.15,262.13,250.62,263.29Z"/><path class="cls-21" d="M275.05,296c-2.32-3.74-9.07-2.62-12.78-2.76s-9.58-1.61-12.46,1.29c-2.64,2.66-1.79,8.26-1.59,12a208,208,0,0,1,28.32-1.17l-.3-2.87C276,300.52,276.18,297.85,275.05,296Z"/></g></g></svg>